<?xml version="1.0" ?><!DOCTYPE svg  PUBLIC '-//W3C//DTD SVG 1.1//EN'  'http://www.w3.org/Graphics/SVG/1.1/DTD/svg11.dtd'><svg height="512px" style="enable-background:new 0 0 512 512;" version="1.1" viewBox="0 0 512 512" width="512px" xml:space="preserve" xmlns="http://www.w3.org/2000/svg" xmlns:xlink="http://www.w3.org/1999/xlink"><g id="_x35_18_x2C__code_x2C__learning_x2C__code_learning_x2C__education"><g><path d="M231,431v30H51V281h30h120h30v30V431z M201,371c0-33.14-26.86-60-60-60s-60,26.86-60,60    s26.86,60,60,60S201,404.14,201,371z" style="fill:#FF7979;"/><g><g><g><polygon points="62,292.666 92,292.666 212,292.666 231,292.666 231,281 201,281 81,281 51,281 51,461        62,461      " style="fill:#D65B5B;"/></g><g><path d="M152,442.666c33.14,0,60-26.86,60-60c0-18.833-8.681-35.63-22.253-46.63       C196.821,345.882,201,357.949,201,371c0,33.14-26.86,60-60,60c-14.307,0-27.437-5.014-37.747-13.37       C114.143,432.786,131.911,442.666,152,442.666z" style="fill:#D65B5B;"/></g></g></g><path d="M141,311c-33.14,0-60,26.86-60,60s26.86,60,60,60s60-26.86,60-60S174.14,311,141,311z" style="fill:#A8CFFF;"/><path d="M86,382.666c0-33.14,26.86-60,60-60c22.503,0,42.099,12.393,52.367,30.719    C190.842,328.844,168.009,311,141,311c-33.14,0-60,26.86-60,60c0,10.637,2.779,20.619,7.633,29.281    C86.924,394.711,86,388.797,86,382.666z" style="fill:#8BBAE8;"/><path d="M461,281v180H281v-30V311v-30h30h120H461z M431,371c0-33.14-26.86-60-60-60s-60,26.86-60,60    s26.86,60,60,60S431,404.14,431,371z" style="fill:#E8F9F9;"/><g><g><g><polygon points="290.666,441.166 290.666,321.166 290.666,291.166 320.666,291.166 440.666,291.166        461,291.166 461,281 431,281 311,281 281,281 281,311 281,431 281,461 290.666,461      " style="fill:#CCE5E4;"/></g><g><path d="M380.666,441.166c33.14,0,60-26.86,60-60c0-18.545-8.415-35.119-21.631-46.124       C426.548,345.063,431,357.511,431,371c0,33.14-26.86,60-60,60c-14.595,0-27.968-5.214-38.369-13.876       C343.575,431.722,361.016,441.166,380.666,441.166z" style="fill:#CCE5E4;"/></g></g></g><path d="M371,311c33.14,0,60,26.86,60,60s-26.86,60-60,60s-60-26.86-60-60S337.86,311,371,311z" style="fill:#A8CFFF;"/><path d="M318,382.666c0-33.14,26.86-60,60-60c19.413,0,36.661,9.226,47.627,23.522    C416.188,325.436,395.288,311,371,311c-33.14,0-60,26.86-60,60c0,13.727,4.618,26.368,12.373,36.478    C319.932,399.913,318,391.518,318,382.666z" style="fill:#8BBAE8;"/><path d="M461,51v180h-30H311h-30v-30V81V51H461z M431,141c0-33.14-26.86-60-60-60s-60,26.86-60,60    s26.86,60,60,60S431,174.14,431,141z" style="fill:#FEBE76;"/><g><g><g><polygon points="291,210.5 291,90.5 291,60.5 461,60.5 461,51 281,51 281,81 281,201 281,231 291,231             " style="fill:#E8A664;"/></g><g><path d="M381,210.5c33.14,0,60-26.86,60-60c0-19.619-9.415-37.033-23.972-47.98       C425.746,112.937,431,126.352,431,141c0,33.14-26.86,60-60,60c-13.521,0-25.995-4.475-36.028-12.02       C345.978,202.131,362.508,210.5,381,210.5z" style="fill:#E8A664;"/></g></g></g><path d="M371,81c-33.14,0-60,26.86-60,60s26.86,60,60,60s60-26.86,60-60S404.14,81,371,81z" style="fill:#A8CFFF;"/><path d="M317.25,152.5c0-33.14,26.86-60,60-60c20.431,0,38.464,10.217,49.299,25.813    C417.602,96.425,396.109,81,371,81c-33.14,0-60,26.86-60,60c0,12.709,3.961,24.486,10.701,34.188    C318.839,168.187,317.25,160.531,317.25,152.5z" style="fill:#8BBAE8;"/><path d="M231,201v30h-30H81H51V51h180v30V201z M201,141c0-33.14-26.86-60-60-60s-60,26.86-60,60    s26.86,60,60,60S201,174.14,201,141z" style="fill:#34495E;"/><g><g><g><polygon points="62.25,62.5 231,62.5 231,51 51,51 51,231 62.25,231      " style="fill:#2C3E50;"/></g><g><path d="M152.25,212.5c33.14,0,60-26.86,60-60c0-19.214-9.04-36.305-23.087-47.286       C196.598,115.206,201,127.587,201,141c0,33.14-26.86,60-60,60c-13.926,0-26.731-4.756-36.913-12.714       C115.023,202.98,132.522,212.5,152.25,212.5z" style="fill:#2C3E50;"/></g></g></g><path d="M141,81c33.14,0,60,26.86,60,60s-26.86,60-60,60s-60-26.86-60-60S107.86,81,141,81z" style="fill:#A8CFFF;"/><path d="M88.25,152.5c0-33.14,26.86-60,60-60c18.968,0,35.867,8.809,46.862,22.548    C185.435,94.905,164.844,81,141,81c-33.14,0-60,26.86-60,60c0,14.172,4.923,27.186,13.138,37.452    C90.365,170.598,88.25,161.796,88.25,152.5z" style="fill:#8BBAE8;"/><path d="M398.58,129.85c1.43,3.71,2.15,7.49,2.15,11.32c0,4.06-0.74,7.94-2.23,11.63c-1.49,3.69-3.55,6.95-6.18,9.78    s-5.78,5.09-9.44,6.78c-3.66,1.68-7.63,2.53-11.92,2.53c-4.46,0-8.51-0.87-12.14-2.62c-3.641-1.74-6.75-4.06-9.36-6.95    c-2.6-2.89-4.62-6.19-6.04-9.91c-1.439-3.72-2.15-7.52-2.15-11.41c0-4.06,0.761-7.95,2.271-11.67c1.52-3.72,3.61-7.01,6.27-9.87    c2.66-2.86,5.82-5.13,9.48-6.82c3.66-1.68,7.63-2.53,11.92-2.53c4.41,0,8.43,0.9,12.06,2.7c3.631,1.81,6.73,4.17,9.311,7.08    C395.15,122.81,397.16,126.13,398.58,129.85z M387.65,148.42c0.77-2.43,1.149-4.9,1.149-7.42c0-2.63-0.41-5.18-1.24-7.64    c-0.829-2.46-2-4.63-3.52-6.52c-1.51-1.88-3.37-3.39-5.58-4.5c-2.2-1.12-4.67-1.67-7.42-1.67c-2.86,0-5.4,0.58-7.63,1.75    c-2.23,1.18-4.09,2.72-5.58,4.64c-1.49,1.91-2.62,4.09-3.39,6.52c-0.771,2.43-1.16,4.9-1.16,7.42c0,2.63,0.399,5.18,1.2,7.64    c0.8,2.46,1.96,4.63,3.479,6.52c1.51,1.88,3.37,3.4,5.58,4.54c2.2,1.15,4.7,1.72,7.5,1.72c2.86,0,5.39-0.59,7.6-1.76    c2.2-1.17,4.061-2.73,5.57-4.67C385.73,153.04,386.87,150.85,387.65,148.42z"/><polygon points="392.15,391.08 392.15,401.46 349.85,401.46 349.85,340.54 391.38,340.54 391.38,350.92 361.69,350.92     361.69,365.59 387.35,365.59 387.35,375.2 361.69,375.2 361.69,391.08   "/><path d="M158.59,152.15l9.69,5.58c-0.97,2.29-2.36,4.31-4.16,6.05c-1.8,1.75-3.83,3.22-6.09,4.42c-2.26,1.2-4.67,2.12-7.25,2.74    c-2.57,0.63-5.09,0.95-7.55,0.95c-4.35,0-8.32-0.92-11.93-2.75c-3.6-1.83-6.7-4.22-9.3-7.16c-2.61-2.95-4.64-6.29-6.1-10.04    s-2.18-7.56-2.18-11.46c0-3.71,0.67-7.39,2.01-11.02c1.35-3.63,3.3-6.88,5.88-9.74c2.57-2.86,5.72-5.18,9.44-6.95    c3.71-1.77,7.95-2.66,12.7-2.66c5.6,0,10.45,1.23,14.54,3.69s7.13,5.66,9.14,9.61l-9.1,6.26c-0.8-1.71-1.77-3.16-2.91-4.33    c-1.15-1.17-2.38-2.1-3.69-2.79c-1.32-0.68-2.69-1.18-4.12-1.5c-1.43-0.31-2.83-0.47-4.21-0.47c-2.97,0-5.56,0.6-7.76,1.8    c-2.21,1.2-4.04,2.76-5.49,4.68c-1.46,1.91-2.56,4.09-3.31,6.52c-0.74,2.43-1.11,4.85-1.11,7.25c0,2.69,0.43,5.27,1.28,7.76    c0.86,2.49,2.08,4.68,3.65,6.57c1.57,1.88,3.46,3.4,5.66,4.54c2.2,1.15,4.62,1.72,7.25,1.72c1.38,0,2.81-0.17,4.29-0.51    c1.49-0.35,2.91-0.89,4.25-1.63c1.34-0.75,2.59-1.71,3.73-2.88C156.99,155.23,157.9,153.81,158.59,152.15z"/><path d="M166.867,359.12c1.25,3.68,1.88,7.62,1.88,11.79c0,4.64-0.7,8.83-2.1,12.57c-1.4,3.75-3.42,6.949-6.05,9.609    c-2.63,2.66-5.79,4.72-9.48,6.18c-3.69,1.461-7.82,2.19-12.4,2.19h-22.13v-60.92h22.13c4.98,0,9.34,0.8,13.09,2.4    c3.74,1.6,6.88,3.779,9.39,6.52C163.717,352.21,165.607,355.43,166.867,359.12z M156.827,370.91c0-2.91-0.4-5.601-1.2-8.061    c-0.81-2.46-1.98-4.58-3.52-6.35c-1.55-1.77-3.45-3.15-5.71-4.12c-2.26-0.97-4.82-1.46-7.68-1.46h-10.29v40.16h10.29    c2.92,0,5.51-0.521,7.77-1.55c2.26-1.03,4.15-2.44,5.66-4.24c1.52-1.81,2.67-3.94,3.48-6.4    C156.427,376.44,156.827,373.78,156.827,370.91z"/><path d="M81,236H51c-2.761,0-5-2.239-5-5V51c0-2.761,2.239-5,5-5h180c2.761,0,5,2.239,5,5v30c0,2.761-2.239,5-5,5s-5-2.239-5-5V56    H56v170h25c2.761,0,5,2.239,5,5S83.761,236,81,236z"/><path d="M231,236h-30c-2.761,0-5-2.239-5-5s2.239-5,5-5h25v-25c0-2.761,2.239-5,5-5s5,2.239,5,5v30    C236,233.761,233.761,236,231,236z"/><path d="M231,316c-2.761,0-5-2.238-5-5v-25h-25c-2.761,0-5-2.238-5-5s2.239-5,5-5h30c2.761,0,5,2.238,5,5v30    C236,313.762,233.761,316,231,316z"/><path d="M231,466H51c-2.761,0-5-2.238-5-5V281c0-2.762,2.239-5,5-5h30c2.761,0,5,2.238,5,5s-2.239,5-5,5H56v170h170v-25    c0-2.762,2.239-5,5-5s5,2.238,5,5v30C236,463.762,233.761,466,231,466z"/><path d="M311,236h-30c-2.762,0-5-2.239-5-5v-30c0-2.761,2.238-5,5-5s5,2.239,5,5v25h25c2.762,0,5,2.239,5,5S313.762,236,311,236z"/><path d="M461,236h-30c-2.762,0-5-2.239-5-5s2.238-5,5-5h25V56H286v25c0,2.761-2.238,5-5,5s-5-2.239-5-5V51c0-2.761,2.238-5,5-5    h180c2.762,0,5,2.239,5,5v180C466,233.761,463.762,236,461,236z"/><path d="M281,316c-2.762,0-5-2.238-5-5v-30c0-2.762,2.238-5,5-5h30c2.762,0,5,2.238,5,5s-2.238,5-5,5h-25v25    C286,313.762,283.762,316,281,316z"/><path d="M461,466H281c-2.762,0-5-2.238-5-5v-30c0-2.762,2.238-5,5-5s5,2.238,5,5v25h170V286h-25c-2.762,0-5-2.238-5-5s2.238-5,5-5    h30c2.762,0,5,2.238,5,5v180C466,463.762,463.762,466,461,466z"/><path d="M141,206c-35.841,0-65-29.159-65-65s29.159-65,65-65s65,29.159,65,65S176.841,206,141,206z M141,86    c-30.327,0-55,24.673-55,55s24.673,55,55,55s55-24.673,55-55S171.327,86,141,86z"/><path d="M371,206c-35.841,0-65-29.159-65-65s29.159-65,65-65s65,29.159,65,65S406.841,206,371,206z M371,86    c-30.327,0-55,24.673-55,55s24.673,55,55,55s55-24.673,55-55S401.327,86,371,86z"/><path d="M371,436c-35.841,0-65-29.159-65-65s29.159-65,65-65s65,29.159,65,65S406.841,436,371,436z M371,316    c-30.327,0-55,24.673-55,55s24.673,55,55,55s55-24.673,55-55S401.327,316,371,316z"/><path d="M141,436c-35.841,0-65-29.159-65-65s29.159-65,65-65s65,29.159,65,65S176.841,436,141,436z M141,316    c-30.327,0-55,24.673-55,55s24.673,55,55,55s55-24.673,55-55S171.327,316,141,316z"/><path d="M281,206h-50c-2.761,0-5-2.239-5-5V81c0-2.761,2.239-5,5-5h50c2.762,0,5,2.239,5,5v120C286,203.761,283.762,206,281,206z     M236,196h40V86h-40V196z"/><path d="M281,436h-50c-2.761,0-5-2.238-5-5V311c0-2.762,2.239-5,5-5h50c2.762,0,5,2.238,5,5v120C286,433.762,283.762,436,281,436z     M236,426h40V316h-40V426z"/><path d="M431,286H311c-2.762,0-5-2.238-5-5v-50c0-2.761,2.238-5,5-5h120c2.762,0,5,2.239,5,5v50C436,283.762,433.762,286,431,286z     M316,276h110v-40H316V276z"/><path d="M201,286H81c-2.761,0-5-2.238-5-5v-50c0-2.761,2.239-5,5-5h120c2.761,0,5,2.239,5,5v50C206,283.762,203.761,286,201,286z     M86,276h110v-40H86V276z"/></g></g><g id="Layer_1"/></svg>