<?xml version="1.0" encoding="iso-8859-1"?>
<!-- Generator: Adobe Illustrator 21.1.0, SVG Export Plug-In . SVG Version: 6.00 Build 0)  -->
<svg version="1.1" id="Layer_1" xmlns="http://www.w3.org/2000/svg" xmlns:xlink="http://www.w3.org/1999/xlink"
	 viewBox="0 0 24 24" enable-background="new 0 0 24 24" xml:space="preserve">
<g>
	<path fill="#303C42" d="M20,11.4309692V9.5c0-1.4208984,0.6835938-5.2797852,0.9003906-5.7001953
		C20.9003906,3.7998047,21,3.6043701,21,3.5C21,2.2602539,16.1054688,2,12,2S3,2.2602539,3,3.5
		c0,0.0948486,0.0820313,0.2729492,0.0820313,0.2729492C3.3164063,4.2202148,4,8.0791016,4,9.5v1.9309692
		C1.2507324,12.019043,0,13.4353638,0,16c0,3.2524414,5.4951172,6,12,6s12-2.7475586,12-6
		C24,13.4353638,22.7492676,12.019043,20,11.4309692z"/>
	<path fill="#676767" d="M19,9.5v3.684021C18.4009399,13.4251709,16.5028076,14,12,14s-6.4009399-0.5748291-7-0.815979V9.5
		c0-0.9872437-0.3531494-3.5407104-0.7092896-5.0953979C6.0187378,4.8778687,9.1928711,5,12,5
		s5.9812622-0.1221313,7.7092896-0.5953979C19.3531494,5.9592896,19,8.5127563,19,9.5z"/>
	<path fill="#C52928" d="M5,14.249939C5.9794922,14.5708008,8.0266724,15,12,15s6.0205078-0.4291992,7-0.750061v1.2144165
		c0,0.1855469-0.09375,0.3505859-0.2441406,0.4306641C17.9785156,16.3076172,16.0673828,17,12,17
		s-5.9785156-0.6923828-6.7558594-1.1054688C5.09375,15.8149414,5,15.6499023,5,15.4643555V14.249939z"/>
	<path opacity="0.2" fill="#FFFFFF" d="M7.460022,13.7435913V9.3723145c0-0.8929443-0.1203613-2.8081055-0.2740479-4.5366211
		C6.052124,4.7438354,5.0338745,4.6081543,4.2907104,4.4046021C4.6468506,5.9592896,5,8.5127563,5,9.5v3.684021
		C5.3355713,13.3190918,6.0795898,13.5587769,7.460022,13.7435913z"/>
	<path opacity="0.1" fill="#010101" d="M16.8140259,4.8356934C16.6603394,6.564209,16.539978,8.4793701,16.539978,9.3723145
		v4.3712769C17.9204102,13.5587769,18.6644287,13.3190918,19,13.184021V9.5c0-0.9872437,0.3531494-3.5407104,0.7092896-5.0953979
		C18.9661255,4.6081543,17.947937,4.7438354,16.8140259,4.8356934z"/>
	<path opacity="0.1" fill="#010101" d="M16.539978,14.7544556v1.5700684c0,0.1008301-0.0041504,0.1977539-0.0097046,0.2920532
		c1.1273804-0.227356,1.828064-0.5105591,2.2255859-0.7215576C18.90625,15.8149414,19,15.6499023,19,15.4643555V14.249939
		C18.4992676,14.4140015,17.713562,14.6055908,16.539978,14.7544556z"/>
	<path opacity="0.2" fill="#FFFFFF" d="M7.460022,16.3245239v-1.5700684C6.286438,14.6055908,5.5007324,14.4140015,5,14.249939
		v1.2144165c0,0.1855469,0.09375,0.3505859,0.2441406,0.4301758c0.397522,0.2112427,1.0982056,0.4945679,2.2255859,0.7219849
		C7.4641724,16.5222168,7.460022,16.425354,7.460022,16.3245239z"/>
	<path fill="#676767" d="M12,3c3.5068359,0,6.0976563,0.2456055,7.3339844,0.5C18.0976563,3.7543945,15.5068359,4,12,4
		S5.9023438,3.7543945,4.6660156,3.5C5.9023438,3.2456055,8.4931641,3,12,3z"/>
	<path fill="#676767" d="M12,21c-6.2958984,0-11-2.6396484-11-5c0-2.0199585,0.8636475-3.0478516,3-3.5494995v3.013855
		c0,0.5566406,0.296875,1.0600586,0.7753906,1.3134766C5.6347656,17.234375,7.7158203,18,12,18
		s6.3652344-0.765625,7.2246094-1.2216797C19.703125,16.5244141,20,16.0209961,20,15.4643555v-3.013916
		C22.1362915,12.9520264,23,13.9800415,23,16C23,18.3603516,18.2958984,21,12,21z"/>
	<path opacity="0.2" fill="#FFFFFF" d="M2.7991943,16.7994995c0-1.3057861,0.3684692-2.1925049,1.2008057-2.7949829v-1.5540161
		C1.8636475,12.9521484,1,13.9800415,1,16c0,1.4254761,1.7230835,2.9489136,4.4688721,3.9351807
		C3.7943726,19.017395,2.7991943,17.8805542,2.7991943,16.7994995z"/>
	<linearGradient id="SVGID_1_" gradientUnits="userSpaceOnUse" x1="9.7757807" y1="11.4722662" x2="19.1257687" y2="20.8222561">
		<stop  offset="0" style="stop-color:#010101;stop-opacity:0.1"/>
		<stop  offset="1" style="stop-color:#010101;stop-opacity:0"/>
	</linearGradient>
	<path fill="url(#SVGID_1_)" d="M20,12.4504395v3.013916c0,0.5566406-0.296875,1.0600586-0.7753906,1.3139648
		C18.3652344,17.234375,16.2841797,18,12,18s-6.3652344-0.765625-7.2246094-1.222168
		c-0.0655518-0.034729-0.1185913-0.0845947-0.177002-0.1281738l4.0975952,4.0976563C9.7303467,20.9089355,10.8375244,21,12,21
		c6.2958984,0,11-2.6396484,11-5C23,13.9800415,22.1362915,12.9520264,20,12.4504395z"/>
	<linearGradient id="SVGID_2_" gradientUnits="userSpaceOnUse" x1="1.4881684" y1="6.6395521" x2="23.8187523" y2="17.052475">
		<stop  offset="0" style="stop-color:#FFFFFF;stop-opacity:0.2"/>
		<stop  offset="1" style="stop-color:#FFFFFF;stop-opacity:0"/>
	</linearGradient>
	<path fill="url(#SVGID_2_)" d="M20,11.4309692V9.5c0-1.4208984,0.6835938-5.2797852,0.9003906-5.7001953
		C20.9003906,3.7998047,21,3.6043701,21,3.5C21,2.2602539,16.1054688,2,12,2S3,2.2602539,3,3.5
		c0,0.0948486,0.0820313,0.2729492,0.0820313,0.2729492C3.3164063,4.2202148,4,8.0791016,4,9.5v1.9309692
		C1.2507324,12.019043,0,13.4353638,0,16c0,3.2524414,5.4951172,6,12,6s12-2.7475586,12-6
		C24,13.4353638,22.7492676,12.019043,20,11.4309692z"/>
</g>
<g>
</g>
<g>
</g>
<g>
</g>
<g>
</g>
<g>
</g>
<g>
</g>
<g>
</g>
<g>
</g>
<g>
</g>
<g>
</g>
<g>
</g>
<g>
</g>
<g>
</g>
<g>
</g>
<g>
</g>
</svg>
