<?xml version="1.0" ?><svg viewBox="0 0 512 512" xmlns="http://www.w3.org/2000/svg"><defs><style>.cls-1{fill:#bebebe;}.cls-2{fill:#a2a2a2;}.cls-3{fill:#f4f4f4;}.cls-4{fill:#d0d0d0;}.cls-5{fill:#5ca4cc;}.cls-6{fill:#00659d;}.cls-7{fill:#d27676;}.cls-8{fill:#f0a5a5;}.cls-9{fill:#ea8383;}.cls-10{fill:#005686;}.cls-11{fill:#c76f6f;}.cls-12{fill:#cbe2ef;}.cls-13{fill:#adc0cb;}.cls-14{fill:#338dbf;}.cls-15{fill:#2b78a3;}</style></defs><g data-name="/ FILLED_OUTLINE" id="_FILLED_OUTLINE"><rect class="cls-1" height="464" rx="16" width="368" x="72" y="24"/><path class="cls-2" d="M85.324,487.75879A16.05467,16.05467,0,0,0,88,488H424a16.00008,16.00008,0,0,0,16-16V120.00049C440,318.78027,282.39258,480.74487,85.324,487.75879Z"/><rect class="cls-3" height="400" width="304" x="104" y="56"/><path class="cls-4" d="M408,456V270.30005A369.3786,369.3786,0,0,1,222.29248,456Z"/><circle class="cls-5" cx="152" cy="104" r="16"/><rect class="cls-5" height="16" width="64" x="192" y="96"/><rect class="cls-6" height="176" width="256" x="128" y="152"/><rect class="cls-7" height="40" width="16" x="208" y="184"/><rect class="cls-7" height="16" width="32" x="160" y="232"/><rect class="cls-7" height="40" width="16" x="208" y="256"/><rect class="cls-7" height="16" width="32" x="240" y="232"/><rect class="cls-7" height="33.94113" transform="translate(-118.03867 251.02944) rotate(-45)" width="16.00036" x="235.99982" y="251.02944"/><rect class="cls-7" height="16.00036" transform="translate(-134.43825 211.41754) rotate(-44.99753)" width="33.94113" x="171.02944" y="259.99982"/><rect class="cls-7" height="33.94113" transform="translate(-94.84271 195.02944) rotate(-45)" width="16.00036" x="179.99982" y="195.02944"/><rect class="cls-7" height="16.00036" transform="translate(-80.09852 238.61326) rotate(-44.99753)" width="45.25483" x="225.37258" y="207.99982"/><rect class="cls-1" height="16" width="96" x="128" y="352"/><rect class="cls-1" height="16" width="96" x="128" y="384"/><rect class="cls-1" height="16" width="104" x="128" y="416"/><circle class="cls-8" cx="312" cy="216" r="16"/><rect class="cls-8" height="16" width="16" x="336" y="176"/><rect class="cls-1" height="16" width="16" x="368" y="96"/><rect class="cls-1" height="16" width="16" x="336" y="96"/><circle class="cls-9" cx="216" cy="240" r="40"/><path class="cls-10" d="M375.613,328H384V315.22461Q379.93689,321.70434,375.613,328Z"/><path class="cls-11" d="M199.56732,276.46655a39.99594,39.99594,0,0,0,52.89917-52.89917A80.17532,80.17532,0,0,1,199.56732,276.46655Z"/><circle class="cls-12" cx="368" cy="368" r="120"/><path class="cls-13" d="M318.6626,477.42017A120.058,120.058,0,0,0,477.42017,318.6626,240.53864,240.53864,0,0,1,318.6626,477.42017Z"/><path class="cls-14" d="M376,280h-8a64,64,0,0,0-64,64h0l-15.45142,38.62866A1,1,0,0,0,289.47705,384H312v24a16.00008,16.00008,0,0,0,16,16,15.99993,15.99993,0,0,1,16,16v16h64V426.74512a45.25392,45.25392,0,0,1,13.25488-32h0A64.00078,64.00078,0,0,0,440,349.49023V344A64,64,0,0,0,376,280Z"/><rect class="cls-6" height="16" width="16" x="368" y="416"/><path class="cls-6" d="M384,400H368V382.627a23.84385,23.84385,0,0,1,7.02979-16.9707l11.1123-11.1123A19.869,19.869,0,0,0,392,340.40234V340a20,20,0,0,0-40,0v12H336V340a36,36,0,0,1,72,0v.40234a35.76394,35.76394,0,0,1-10.54443,25.45606l-11.11231,11.1123A7.94524,7.94524,0,0,0,384,382.627Z"/><path class="cls-15" d="M408,456V426.85938A240.6977,240.6977,0,0,1,367.75134,456Z"/><path d="M448,268.15918V40a24.0275,24.0275,0,0,0-24-24H88A24.0275,24.0275,0,0,0,64,40V472a24.0275,24.0275,0,0,0,24,24H368a127.94654,127.94654,0,0,0,80-227.84082ZM88,480a8.00917,8.00917,0,0,1-8-8V40a8.00917,8.00917,0,0,1,8-8H424a8.00917,8.00917,0,0,1,8,8V257.18286a127.5495,127.5495,0,0,0-16-7.83472V48H96V464H283.43591a128.61719,128.61719,0,0,0,22.65784,16ZM249.348,320H144V160H368v80A128.199,128.199,0,0,0,249.348,320ZM128,144V336H244.04993A127.9114,127.9114,0,0,0,268.1593,448H112V64H400V244.0498a127.16158,127.16158,0,0,0-16-3.05175V144ZM368,480A112,112,0,1,1,480,368,112.12706,112.12706,0,0,1,368,480Z"/><path d="M408,340a36,36,0,0,0-72,0v12h16V340a20,20,0,0,1,40,0v.40234a19.869,19.869,0,0,1-5.85791,14.14161l-11.1123,11.1123A23.84385,23.84385,0,0,0,368,382.627V400h16V382.627a7.94524,7.94524,0,0,1,2.34326-5.65625l11.11231-11.1123A35.76394,35.76394,0,0,0,408,340.40234Z"/><rect height="16" width="16" x="368" y="416"/><path d="M376,272h-8a72.08241,72.08241,0,0,0-71.98291,70.416l-14.896,37.24023A8.99964,8.99964,0,0,0,289.47705,392H304v16a24.0275,24.0275,0,0,0,24,24,8.00917,8.00917,0,0,1,8,8v16h16V440a24.02718,24.02718,0,0,0-24-24,8.00917,8.00917,0,0,1-8-8V376H299.81641L312,345.541V344a56.06322,56.06322,0,0,1,56-56h8a56.06322,56.06322,0,0,1,56,56v5.49023a55.63347,55.63347,0,0,1-16.40234,39.59864A52.90678,52.90678,0,0,0,400,426.74512V456h16V426.74512a37.01091,37.01091,0,0,1,10.91162-26.34278A71.52767,71.52767,0,0,0,448,349.49023V344A72.08124,72.08124,0,0,0,376,272Z"/><path d="M152,80a24,24,0,1,0,24,24A24.02718,24.02718,0,0,0,152,80Zm0,32a8,8,0,1,1,8-8A8.00917,8.00917,0,0,1,152,112Z"/><rect height="16" width="64" x="192" y="96"/><path d="M252.23358,223.08032l17.42316-17.42309-11.31348-11.31446-15.783,15.783A39.90465,39.90465,0,0,0,224,200.80493V184H208v16.80493a39.77174,39.77174,0,0,0-14.04211,5.83911l-12.30115-12.30127-11.31348,11.31446L182.64392,217.958a39.77333,39.77333,0,0,0-5.839,14.042H160v16h16.80493a39.77333,39.77333,0,0,0,5.839,14.042l-12.30066,12.30078,11.31348,11.31446L193.95789,273.356A39.77174,39.77174,0,0,0,208,279.19507V296h16V279.19507a39.77174,39.77174,0,0,0,14.04211-5.83911l12.30115,12.30127,11.31348-11.31446L249.35608,262.042a39.77333,39.77333,0,0,0,5.839-14.042H272V232H255.19507A39.66254,39.66254,0,0,0,252.23358,223.08032ZM216,264a24,24,0,1,1,24-24A24.0275,24.0275,0,0,1,216,264Z"/><rect height="16" width="96" x="128" y="352"/><rect height="16" width="96" x="128" y="384"/><rect height="16" width="104" x="128" y="416"/><path d="M312,240a24,24,0,1,0-24-24A24.02718,24.02718,0,0,0,312,240Zm0-32a8,8,0,1,1-8,8A8.00917,8.00917,0,0,1,312,208Z"/><rect height="16" width="16" x="336" y="176"/><rect height="16" width="16" x="368" y="96"/><rect height="16" width="16" x="336" y="96"/></g></svg>