<?xml version="1.0" ?><svg height="64" id="svg2447" version="1.1" viewBox="0 0 16.933333 16.933334" width="64" xmlns="http://www.w3.org/2000/svg" xmlns:cc="http://creativecommons.org/ns#" xmlns:dc="http://purl.org/dc/elements/1.1/" xmlns:inkscape="http://www.inkscape.org/namespaces/inkscape" xmlns:rdf="http://www.w3.org/1999/02/22-rdf-syntax-ns#" xmlns:sodipodi="http://sodipodi.sourceforge.net/DTD/sodipodi-0.dtd" xmlns:svg="http://www.w3.org/2000/svg"><defs id="defs2441"/><g id="layer1" transform="translate(0,-280.06665)"><path d="m 8.4671761,282.18434 c -2.3096776,0 -3.9879376,0.80713 -5.0642891,2.08153 -1.0763516,1.2744 -1.5508103,2.99174 -1.5508103,4.79712 a 0.2646485,0.2646485 0 0 0 5.291e-4,0.0103 c -0.3087872,0.23168 -0.5301985,0.59475 -0.5301985,1.04851 0,0.76965 0.6266815,1.28409 1.2614196,1.31568 0.1456982,0.16407 0.3555286,0.26975 0.5901453,0.26975 0.4351628,0 0.7953004,-0.35755 0.7953004,-0.79271 v -1.58802 c 0,-0.43516 -0.3601376,-0.79272 -0.7953004,-0.79272 -0.2344553,0 -0.4439418,0.10589 -0.5896267,0.26975 -0.065397,0.003 -0.1307915,0.008 -0.1953366,0.0212 0.04045,-1.62086 0.4894316,-3.11944 1.4180001,-4.21887 0.9741693,-1.15341 2.4719412,-1.89239 4.6601803,-1.89239 2.1877917,0 3.6769177,0.74367 4.6482957,1.90015 0.92516,1.10143 1.373708,2.6001 1.425752,4.21059 -0.06386,-0.0131 -0.12858,-0.0175 -0.193268,-0.0207 -0.145685,-0.16387 -0.355174,-0.26975 -0.589629,-0.26975 -0.43516,0 -0.793234,0.35755 -0.793234,0.79271 v 1.588 c 0,0.43516 0.358074,0.79272 0.793234,0.79272 0.234617,0 0.444452,-0.10569 0.590145,-0.26976 0.634741,-0.0316 1.261422,-0.54603 1.261422,-1.31568 0,-0.45375 -0.220895,-0.81683 -0.529685,-1.04851 a 0.26465721,0.26465721 0 0 0 0,-0.0124 c -0.01339,-1.7931 -0.485939,-3.50978 -1.55856,-4.78679 -1.072631,-1.27701 -2.744353,-2.08979 -5.0544727,-2.08979 z m 1.8650029,5.83375 c -0.20306,-0.01 -0.4044023,0.008 -0.5953123,0.0408 -0.6925894,0.1186 -1.169895,0.40396 -1.2738234,0.46302 -0.1064101,-0.0596 -0.575175,-0.33815 -1.2634886,-0.4532 -0.3807354,-0.0636 -0.8018886,-0.0684 -1.1973428,0.0879 -0.039976,0.0158 -0.079314,0.0344 -0.1183402,0.0537 l 0.369488,0.42271 c 0.258236,-0.0872 0.5608955,-0.0929 0.8604118,-0.0429 0.6412204,0.10718 1.220597,0.4377 1.220597,0.4377 a 0.26460982,0.26460982 0 0 0 0.2656179,-0.002 c 0,0 0.584491,-0.33547 1.2267963,-0.44546 0.160581,-0.0275 0.3215983,-0.0397 0.4764583,-0.032 0.154858,0.008 0.303134,0.0354 0.437182,0.0889 0.268094,0.10697 0.49557,0.3054 0.656291,0.72244 0.145111,0.37655 0.06587,0.85605 -0.181385,1.38699 -0.233312,0.50099 -0.61023,1.02955 -1.015958,1.5136 l 0.352949,0.4036 c 0.443786,-0.52186 0.868424,-1.10155 1.143601,-1.69241 0.279958,-0.60113 0.415337,-1.23212 0.195336,-1.80299 -0.204401,-0.53038 -0.557381,-0.86516 -0.953431,-1.02319 -0.198025,-0.079 -0.402587,-0.11722 -0.605647,-0.12713 z m -4.8787711,0.50488 c -0.1641502,0.16747 -0.3045169,0.38103 -0.4082442,0.64338 -0.2237158,0.56581 -0.087638,1.1932 0.1917198,1.79317 0.2793523,0.59997 0.7113719,1.19202 1.1637539,1.72237 0.9047639,1.06069 1.8985918,1.87741 1.8985918,1.87741 a 0.26460982,0.26460982 0 0 0 0.3338301,0 c 0,0 0.7660217,-0.62539 1.5652777,-1.49448 l -0.3503663,-0.4005 c -0.6720896,0.73787 -1.2464841,1.20671 -1.3807946,1.31879 -0.1524661,-0.12795 -0.8759772,-0.72106 -1.6639805,-1.64486 -0.4337738,-0.50853 -0.8411316,-1.07171 -1.0877894,-1.60146 -0.2466551,-0.52974 -0.3236701,-1.0061 -0.1777656,-1.37511 0.074586,-0.18864 0.1635575,-0.33021 0.2635488,-0.44028 z m -2.279449,0.54002 c 0.1511565,0 0.2661338,0.1124 0.2661338,0.26355 v 1.58802 c 0,0.15116 -0.1149773,0.26355 -0.2661338,0.26355 -0.1511538,0 -0.2635488,-0.1124 -0.2635488,-0.26355 v -1.58802 c 0,-0.15115 0.112395,-0.26355 0.2635488,-0.26355 z m 10.5843681,0 c 0.151159,0 0.265618,0.1124 0.265618,0.26355 v 1.58802 c 0,0.15116 -0.114459,0.26355 -0.265618,0.26355 -0.151151,0 -0.263549,-0.1124 -0.263549,-0.26355 v -1.58802 c 0,-0.15115 0.112398,-0.26355 0.263549,-0.26355 z m 0.792715,0.31316 c 0.282292,0.10304 0.529167,0.36591 0.529167,0.74569 0,0.37973 -0.246925,0.64058 -0.529167,0.74311 z m -12.1697987,5.1e-4 v 1.48828 c -0.2820643,-0.10264 -0.5291666,-0.36357 -0.5291666,-0.74311 0,-0.37953 0.2471076,-0.642 0.5291666,-0.74517 z" id="path1665" style="color:#000000;font-style:normal;font-variant:normal;font-weight:normal;font-stretch:normal;font-size:medium;line-height:normal;font-family:sans-serif;font-variant-ligatures:normal;font-variant-position:normal;font-variant-caps:normal;font-variant-numeric:normal;font-variant-alternates:normal;font-feature-settings:normal;text-indent:0;text-align:start;text-decoration:none;text-decoration-line:none;text-decoration-style:solid;text-decoration-color:#000000;letter-spacing:normal;word-spacing:normal;text-transform:none;writing-mode:lr-tb;direction:ltr;text-orientation:mixed;dominant-baseline:auto;baseline-shift:baseline;text-anchor:start;white-space:normal;shape-padding:0;clip-rule:nonzero;display:inline;overflow:visible;visibility:visible;opacity:1;isolation:auto;mix-blend-mode:normal;color-interpolation:sRGB;color-interpolation-filters:linearRGB;solid-color:#000000;solid-opacity:1;vector-effect:none;fill:#000000;fill-opacity:1;fill-rule:nonzero;stroke:none;stroke-width:0.5291667;stroke-linecap:round;stroke-linejoin:round;stroke-miterlimit:4;stroke-dasharray:none;stroke-dashoffset:0;stroke-opacity:1;paint-order:normal;color-rendering:auto;image-rendering:auto;shape-rendering:auto;text-rendering:auto;enable-background:accumulate"/><path d="m 10.30324,288.5483 c 0.154858,0.008 0.303133,0.0354 0.437181,0.0889 0.268095,0.10698 0.495571,0.3054 0.656291,0.72244 0.14511,0.37655 0.0659,0.85606 -0.18138,1.38699 -0.247268,0.53095 -0.65442,1.09459 -1.087794,1.60146 -0.7869771,0.92047 -1.5077201,1.50769 -1.660364,1.63506 -0.1524661,-0.12795 -0.8759772,-0.72107 -1.6639802,-1.64488 -0.4337738,-0.50853 -0.8411319,-1.07171 -1.0877889,-1.60146 -0.246656,-0.52974 -0.3236709,-1.00609 -0.1777659,-1.3751 0.1623769,-0.41069 0.390747,-0.60625 0.6599079,-0.71262 0.2691601,-0.10637 0.595611,-0.1125 0.916223,-0.0589 0.6412201,0.10718 1.220597,0.4377 1.220597,0.4377 a 0.26460982,0.26460982 0 0 0 0.2656179,-0.002 c 0,0 0.584491,-0.33547 1.2267959,-0.44545 0.160578,-0.0275 0.3215983,-0.0397 0.4764593,-0.032 z" id="path1976-3" style="color:#000000;font-style:normal;font-variant:normal;font-weight:normal;font-stretch:normal;font-size:medium;line-height:normal;font-family:sans-serif;font-variant-ligatures:normal;font-variant-position:normal;font-variant-caps:normal;font-variant-numeric:normal;font-variant-alternates:normal;font-feature-settings:normal;text-indent:0;text-align:start;text-decoration:none;text-decoration-line:none;text-decoration-style:solid;text-decoration-color:#000000;letter-spacing:normal;word-spacing:normal;text-transform:none;writing-mode:lr-tb;direction:ltr;text-orientation:mixed;dominant-baseline:auto;baseline-shift:baseline;text-anchor:start;white-space:normal;shape-padding:0;clip-rule:nonzero;display:inline;overflow:visible;visibility:visible;opacity:1;isolation:auto;mix-blend-mode:normal;color-interpolation:sRGB;color-interpolation-filters:linearRGB;solid-color:#000000;solid-opacity:1;vector-effect:none;fill:#ff5252;fill-opacity:0.94509804;fill-rule:nonzero;stroke:none;stroke-width:0.5291667;stroke-linecap:round;stroke-linejoin:round;stroke-miterlimit:4;stroke-dasharray:none;stroke-dashoffset:0;stroke-opacity:1;paint-order:normal;color-rendering:auto;image-rendering:auto;shape-rendering:auto;text-rendering:auto;enable-background:accumulate"/><path d="m 3.1739568,289.06299 c 0.151157,0 0.2661341,0.1124 0.2661341,0.26355 v 1.58801 c 0,0.15116 -0.1149771,0.26356 -0.2661341,0.26356 -0.1511538,0 -0.2635488,-0.1124 -0.2635488,-0.26356 v -1.58801 c 0,-0.15115 0.112395,-0.26355 0.2635488,-0.26355 z" id="path1974-0" style="color:#000000;font-style:normal;font-variant:normal;font-weight:normal;font-stretch:normal;font-size:medium;line-height:normal;font-family:sans-serif;font-variant-ligatures:normal;font-variant-position:normal;font-variant-caps:normal;font-variant-numeric:normal;font-variant-alternates:normal;font-feature-settings:normal;text-indent:0;text-align:start;text-decoration:none;text-decoration-line:none;text-decoration-style:solid;text-decoration-color:#000000;letter-spacing:normal;word-spacing:normal;text-transform:none;writing-mode:lr-tb;direction:ltr;text-orientation:mixed;dominant-baseline:auto;baseline-shift:baseline;text-anchor:start;white-space:normal;shape-padding:0;clip-rule:nonzero;display:inline;overflow:visible;visibility:visible;opacity:1;isolation:auto;mix-blend-mode:normal;color-interpolation:sRGB;color-interpolation-filters:linearRGB;solid-color:#000000;solid-opacity:1;vector-effect:none;fill:#e1f5fe;fill-opacity:0.94509804;fill-rule:nonzero;stroke:none;stroke-width:0.5291667;stroke-linecap:round;stroke-linejoin:round;stroke-miterlimit:4;stroke-dasharray:none;stroke-dashoffset:0;stroke-opacity:1;paint-order:normal;color-rendering:auto;image-rendering:auto;shape-rendering:auto;text-rendering:auto;enable-background:accumulate"/><path d="m 13.758332,289.06299 c 0.15116,0 0.26561,0.1124 0.26561,0.26355 v 1.58801 c 0,0.15116 -0.11445,0.26356 -0.26561,0.26356 -0.15116,0 -0.26355,-0.1124 -0.26355,-0.26356 v -1.58801 c 0,-0.15115 0.11239,-0.26355 0.26355,-0.26355 z" id="path1972-5" style="color:#000000;font-style:normal;font-variant:normal;font-weight:normal;font-stretch:normal;font-size:medium;line-height:normal;font-family:sans-serif;font-variant-ligatures:normal;font-variant-position:normal;font-variant-caps:normal;font-variant-numeric:normal;font-variant-alternates:normal;font-feature-settings:normal;text-indent:0;text-align:start;text-decoration:none;text-decoration-line:none;text-decoration-style:solid;text-decoration-color:#000000;letter-spacing:normal;word-spacing:normal;text-transform:none;writing-mode:lr-tb;direction:ltr;text-orientation:mixed;dominant-baseline:auto;baseline-shift:baseline;text-anchor:start;white-space:normal;shape-padding:0;clip-rule:nonzero;display:inline;overflow:visible;visibility:visible;opacity:1;isolation:auto;mix-blend-mode:normal;color-interpolation:sRGB;color-interpolation-filters:linearRGB;solid-color:#000000;solid-opacity:1;vector-effect:none;fill:#e1f5fe;fill-opacity:0.94509804;fill-rule:nonzero;stroke:none;stroke-width:0.5291667;stroke-linecap:round;stroke-linejoin:round;stroke-miterlimit:4;stroke-dasharray:none;stroke-dashoffset:0;stroke-opacity:1;paint-order:normal;color-rendering:auto;image-rendering:auto;shape-rendering:auto;text-rendering:auto;enable-background:accumulate"/><path d="m 14.551042,289.37615 c 0.28229,0.10304 0.52917,0.36591 0.52917,0.74569 0,0.37973 -0.24693,0.64058 -0.52917,0.74311 z" id="path1970-0" style="color:#000000;font-style:normal;font-variant:normal;font-weight:normal;font-stretch:normal;font-size:medium;line-height:normal;font-family:sans-serif;font-variant-ligatures:normal;font-variant-position:normal;font-variant-caps:normal;font-variant-numeric:normal;font-variant-alternates:normal;font-feature-settings:normal;text-indent:0;text-align:start;text-decoration:none;text-decoration-line:none;text-decoration-style:solid;text-decoration-color:#000000;letter-spacing:normal;word-spacing:normal;text-transform:none;writing-mode:lr-tb;direction:ltr;text-orientation:mixed;dominant-baseline:auto;baseline-shift:baseline;text-anchor:start;white-space:normal;shape-padding:0;clip-rule:nonzero;display:inline;overflow:visible;visibility:visible;opacity:1;isolation:auto;mix-blend-mode:normal;color-interpolation:sRGB;color-interpolation-filters:linearRGB;solid-color:#000000;solid-opacity:1;vector-effect:none;fill:#4fc3f7;fill-opacity:0.94509804;fill-rule:nonzero;stroke:none;stroke-width:0.5291667;stroke-linecap:round;stroke-linejoin:round;stroke-miterlimit:4;stroke-dasharray:none;stroke-dashoffset:0;stroke-opacity:1;paint-order:normal;color-rendering:auto;image-rendering:auto;shape-rendering:auto;text-rendering:auto;enable-background:accumulate"/><path d="m 2.3812419,289.37667 v 1.48828 c -0.282065,-0.10264 -0.529167,-0.36357 -0.529167,-0.74311 0,-0.37953 0.247108,-0.64199 0.529167,-0.74517 z" id="rect1880-4" style="color:#000000;font-style:normal;font-variant:normal;font-weight:normal;font-stretch:normal;font-size:medium;line-height:normal;font-family:sans-serif;font-variant-ligatures:normal;font-variant-position:normal;font-variant-caps:normal;font-variant-numeric:normal;font-variant-alternates:normal;font-feature-settings:normal;text-indent:0;text-align:start;text-decoration:none;text-decoration-line:none;text-decoration-style:solid;text-decoration-color:#000000;letter-spacing:normal;word-spacing:normal;text-transform:none;writing-mode:lr-tb;direction:ltr;text-orientation:mixed;dominant-baseline:auto;baseline-shift:baseline;text-anchor:start;white-space:normal;shape-padding:0;clip-rule:nonzero;display:inline;overflow:visible;visibility:visible;opacity:1;isolation:auto;mix-blend-mode:normal;color-interpolation:sRGB;color-interpolation-filters:linearRGB;solid-color:#000000;solid-opacity:1;vector-effect:none;fill:#4fc3f7;fill-opacity:0.94509804;fill-rule:nonzero;stroke:none;stroke-width:0.5291667;stroke-linecap:round;stroke-linejoin:round;stroke-miterlimit:4;stroke-dasharray:none;stroke-dashoffset:0;stroke-opacity:1;paint-order:normal;color-rendering:auto;image-rendering:auto;shape-rendering:auto;text-rendering:auto;enable-background:accumulate"/></g></svg>