<svg xmlns="http://www.w3.org/2000/svg" viewBox="0 0 70.48 69.09"><defs><style>.cls-1{fill:#a9caec;}.cls-2,.cls-3{fill:#fff;}.cls-3{opacity:0.6;}</style></defs><title>Recurso 15</title><g id="Capa_2" data-name="Capa 2"><g id="Capa_2-2" data-name="Capa 2"><rect class="cls-1" width="70.48" height="69.09" rx="16.46"/><path class="cls-2" d="M54.38,11.28A2.66,2.66,0,0,0,51.92,11L25.56,21.56A2.63,2.63,0,0,0,23.91,24V40.74A9.21,9.21,0,1,0,29.18,49V25.79l21.08-8.44V32.84a9,9,0,0,0-3.95-.93,9.23,9.23,0,1,0,9.22,9.23V13.46A2.64,2.64,0,0,0,54.38,11.28ZM20,53a4,4,0,1,1,4-4A4,4,0,0,1,20,53Zm26.36-7.91a4,4,0,1,1,3.95-4A4,4,0,0,1,46.31,45.09Z"/><circle class="cls-3" cx="19.95" cy="49.04" r="3.95"/><circle class="cls-3" cx="46.31" cy="41.14" r="3.95"/></g></g></svg>