<?xml version="1.0" ?><svg style="enable-background:new 0 0 256 256;" version="1.1" viewBox="0 0 256 256" xml:space="preserve" xmlns="http://www.w3.org/2000/svg" xmlns:xlink="http://www.w3.org/1999/xlink"><style type="text/css">
	.st0{fill:#D5E2EB;}
	.st1{fill:none;stroke:#00A388;stroke-width:4;stroke-miterlimit:10;}
	.st2{fill:#FFFFFF;}
	.st3{fill:#CC4E47;}
	.st4{fill:#EA685E;}
	.st5{fill:#4B687F;}
	.st6{fill:#2C3E50;}
	.st7{fill:#3E5063;}
	.st8{fill:#FFAB80;}
	.st9{filter:url(#Adobe_OpacityMaskFilter);}
	.st10{mask:url(#SVGID_2_);}
	.st11{fill:#F09A79;}
	.st12{fill:#00886F;}
	.st13{fill:#00A388;}
	.st14{fill:none;stroke:#3E5063;stroke-width:4;stroke-miterlimit:10;}
	.st15{fill:#FFD766;}
	.st16{fill:#5488B7;}
	.st17{fill:#8C623B;}
	.st18{fill:#E6E6E6;stroke:#3E5063;stroke-width:16;stroke-miterlimit:10;}
	.st19{opacity:0.6;}
	.st20{fill:#E6E6E6;}
	.st21{fill:none;stroke:#D5E2EB;stroke-width:5;stroke-miterlimit:10;}
	.st22{fill:#FFEC9F;}
	.st23{fill:#603813;}
	.st24{filter:url(#Adobe_OpacityMaskFilter_1_);}
	.st25{mask:url(#SVGID_1_);}
</style><g id="Layer_2"><circle class="st0" cx="128" cy="128" r="120"/></g><g id="Layer_1"><g><g><g><path class="st3" d="M160.36247,80.15766l14.31064,11.34619c0.95877,0.76017,2.35225,0.59917,3.11243-0.35962l3.21161-4.0507      c0.76016-0.95878,0.59917-2.35226-0.35962-3.11243L166.32689,72.6349c-0.95877-0.76017-2.35226-0.59916-3.11243,0.35962      l-3.21161,4.0507C159.24269,78.00401,159.4037,79.39749,160.36247,80.15766z"/></g><g><path class="st3" d="M95.63753,80.15766L81.32689,91.50385c-0.95878,0.76017-2.35225,0.59917-3.11243-0.35962l-3.21161-4.0507      c-0.76016-0.95878-0.59916-2.35226,0.35962-3.11243L89.6731,72.6349c0.95878-0.76017,2.35226-0.59916,3.11243,0.35962      l3.21161,4.0507C96.75732,78.00401,96.59631,79.39749,95.63753,80.15766z"/></g></g><g><circle class="st3" cx="128" cy="143.06938" r="65.24705"/></g><g><rect class="st3" height="14.84908" width="12.2002" x="121.8999" y="60.81927"/></g><g><circle class="st4" cx="128" cy="135.06938" r="65.24705"/></g><g><circle class="st2" cx="128" cy="135.06938" r="52"/></g><g><circle class="st5" cx="128.30461" cy="93.91688" r="3.39471"/></g><g><ellipse class="st5" cx="92.51405" cy="114.22845" rx="3.39472" ry="3.39472" transform="matrix(0.5 -0.86603 0.86603 0.5 -52.66767 137.23407)"/></g><g><circle class="st5" cx="86.8475" cy="134.76479" r="3.39471"/></g><g><ellipse class="st5" cx="92.2095" cy="155.38289" rx="3.39472" ry="3.39472" transform="matrix(0.86603 -0.5 0.5 0.86603 -65.33752 66.92175)"/></g><g><ellipse class="st5" cx="107.16106" cy="170.55524" rx="3.39472" ry="3.39472" transform="matrix(0.5 -0.86603 0.86603 0.5 -94.12462 178.08229)"/></g><g><circle class="st5" cx="127.6954" cy="176.22188" r="3.39471"/></g><g><ellipse class="st5" cx="148.31361" cy="170.86189" rx="3.39472" ry="3.39472" transform="matrix(0.86603 -0.5 0.5 0.86603 -65.56052 97.04747)"/></g><g><ellipse class="st5" cx="163.48787" cy="155.90822" rx="3.39472" ry="3.39472" transform="matrix(0.5 -0.86603 0.86603 0.5 -53.2764 219.53925)"/></g><g><circle class="st5" cx="169.15251" cy="135.37399" r="3.39471"/></g><g><ellipse class="st5" cx="163.79263" cy="114.75777" rx="3.39472" ry="3.39472" transform="matrix(0.86603 -0.5 0.5 0.86603 -35.4348 97.27048)"/></g><g><ellipse class="st5" cx="148.84082" cy="99.58144" rx="3.39472" ry="3.39472" transform="matrix(0.5 -0.86603 0.86603 0.5 -11.81946 178.69102)"/></g><g><circle class="st4" cx="128" cy="135.06938" r="7.65953"/></g><g><path class="st4" d="M128,136.76439c-1.65723,0-3-1.34277-3-3v-28.96875c0-1.65723,1.34277-3,3-3s3,1.34277,3,3v28.96875     C131,135.42162,129.65723,136.76439,128,136.76439z"/></g><g><path class="st4" d="M142.12378,62.53262h-28.24755c-1.89252,0-3.42671-1.53416-3.42671-3.42671v-7.99563     c0-1.89252,1.53419-3.42671,3.42671-3.42671h28.24755c1.89252,0,3.4267,1.53419,3.4267,3.42671v7.99563     C145.55048,60.99845,144.0163,62.53262,142.12378,62.53262z"/></g><g><ellipse class="st5" cx="107.71801" cy="99.58149" rx="3.39472" ry="3.39472" transform="matrix(0.87373 -0.48641 0.48641 0.87373 -34.83583 64.9687)"/></g></g></g></svg>