<svg id="Icons" xmlns="http://www.w3.org/2000/svg" viewBox="0 0 48 48"><defs><style>.cls-1{fill:#45413c;opacity:0.15;}.cls-2{fill:#009fd9;}.cls-3{fill:#00b8f0;}.cls-4{fill:none;stroke:#45413c;stroke-linecap:round;stroke-linejoin:round;}</style></defs><title>408-zzz</title><g id="_Group_" data-name="&lt;Group&gt;"><ellipse id="_Ellipse_" data-name="&lt;Ellipse&gt;" class="cls-1" cx="25.17" cy="42" rx="15" ry="1.5"/><g id="_Group_2" data-name="&lt;Group&gt;"><path id="_Path_" data-name="&lt;Path&gt;" class="cls-2" d="M45,7.64H28.62a1.43,1.43,0,0,0-1.43,1.43v1.19a1.43,1.43,0,0,0,1.43,1.42H40.09L28,23.83a2.85,2.85,0,0,0-.83,2v1.44a1.42,1.42,0,0,0,1.43,1.42H45a1.41,1.41,0,0,0,1.42-1.42V26.09A1.42,1.42,0,0,0,45,24.66H33.55L45.62,12.52a2.86,2.86,0,0,0,.82-2V9.07A1.42,1.42,0,0,0,45,7.64Z"/><g id="_Group_3" data-name="&lt;Group&gt;"><path id="_Path_2" data-name="&lt;Path&gt;" class="cls-3" d="M45,7.64H28.62a1.43,1.43,0,0,0-1.43,1.43v1.19a1.44,1.44,0,0,0,.1.5,1.41,1.41,0,0,1,1.33-.92H45A1.43,1.43,0,0,1,46.41,11a3.15,3.15,0,0,0,0-.44V9.07A1.42,1.42,0,0,0,45,7.64Z"/></g><path id="_Path_3" data-name="&lt;Path&gt;" class="cls-4" d="M45,7.64H28.62a1.43,1.43,0,0,0-1.43,1.43v1.19a1.43,1.43,0,0,0,1.43,1.42H40.09L28,23.83a2.85,2.85,0,0,0-.83,2v1.44a1.42,1.42,0,0,0,1.43,1.42H45a1.41,1.41,0,0,0,1.42-1.42V26.09A1.42,1.42,0,0,0,45,24.66H33.55L45.62,12.52a2.86,2.86,0,0,0,.82-2V9.07A1.42,1.42,0,0,0,45,7.64Z"/></g><g id="_Group_4" data-name="&lt;Group&gt;"><path id="_Path_4" data-name="&lt;Path&gt;" class="cls-2" d="M24.05,19.59H13.79a1.14,1.14,0,0,0-1.14,1.14v.95a1.14,1.14,0,0,0,1.14,1.14h6.32l-6.8,6.86a2.31,2.31,0,0,0-.66,1.61v1.15a1.14,1.14,0,0,0,1.14,1.14H24.05a1.14,1.14,0,0,0,1.14-1.14v-.95a1.14,1.14,0,0,0-1.14-1.14H17.73l6.8-6.87a2.23,2.23,0,0,0,.66-1.6V20.73A1.14,1.14,0,0,0,24.05,19.59Z"/><g id="_Group_5" data-name="&lt;Group&gt;"><path id="_Path_5" data-name="&lt;Path&gt;" class="cls-3" d="M24.05,19.59H13.79a1.14,1.14,0,0,0-1.14,1.14v.95a1.29,1.29,0,0,0,.07.4,1.15,1.15,0,0,1,1.07-.74H24.05a1.15,1.15,0,0,1,1.12.89c0-.11,0-.23,0-.35V20.73A1.14,1.14,0,0,0,24.05,19.59Z"/></g><path id="_Path_6" data-name="&lt;Path&gt;" class="cls-4" d="M24.05,19.59H13.79a1.14,1.14,0,0,0-1.14,1.14v.95a1.14,1.14,0,0,0,1.14,1.14h6.32l-6.8,6.86a2.31,2.31,0,0,0-.66,1.61v1.15a1.14,1.14,0,0,0,1.14,1.14H24.05a1.14,1.14,0,0,0,1.14-1.14v-.95a1.14,1.14,0,0,0-1.14-1.14H17.73l6.8-6.87a2.23,2.23,0,0,0,.66-1.6V20.73A1.14,1.14,0,0,0,24.05,19.59Z"/></g><g id="_Group_6" data-name="&lt;Group&gt;"><path class="cls-2" d="M10.09,30.38v-1a1,1,0,0,0-1-1H2.53a1,1,0,0,0-1,1v.82a1,1,0,0,0,1,1H5.75L2.37,34.62A1.91,1.91,0,0,0,1.8,36v1a1,1,0,0,0,1,1H9.12a1,1,0,0,0,1-1v-.82a1,1,0,0,0-1-1h-3l3.38-3.44A1.91,1.91,0,0,0,10.09,30.38Z"/><g id="_Group_7" data-name="&lt;Group&gt;"><path id="_Path_7" data-name="&lt;Path&gt;" class="cls-3" d="M9.12,28.42H2.53a1,1,0,0,0-1,1v.82a.93.93,0,0,0,.06.34,1,1,0,0,1,.91-.63H9.12a1,1,0,0,1,1,.76c0-.1,0-.2,0-.3v-1A1,1,0,0,0,9.12,28.42Z"/></g><path id="_Path_8" data-name="&lt;Path&gt;" class="cls-4" d="M9.12,28.42H2.53a1,1,0,0,0-1,1v.81a1,1,0,0,0,1,1H5.75L2.37,34.62A1.91,1.91,0,0,0,1.8,36v1a1,1,0,0,0,1,1H9.12a1,1,0,0,0,1-1v-.82a1,1,0,0,0-1-1h-3l3.38-3.44a1.91,1.91,0,0,0,.57-1.37v-1A1,1,0,0,0,9.12,28.42Z"/></g></g></svg>